<svg xmlns="http://www.w3.org/2000/svg" width="30" height="31" viewBox="0 0 30 31" fill="none">
  <path d="M27.3399 2.01204H2.66255C1.81729 2.01204 1.13208 2.69725 1.13208 3.54251V28.2199C1.13208 29.0651 1.81729 29.7503 2.66255 29.7503H27.3399C28.1851 29.7503 28.8704 29.0651 28.8704 28.2199V3.54251C28.8704 2.69725 28.1851 2.01204 27.3399 2.01204Z" fill="black"/>
  <path d="M20.2687 29.748V19.0066H23.8734L24.4125 14.8206H20.2687V12.1488C20.2687 10.937 20.6062 10.1097 22.3429 10.1097H24.5601V6.35969C23.4865 6.2478 22.4075 6.19459 21.3281 6.20031C18.1359 6.20031 15.9375 8.14563 15.9375 11.7339V14.8206H12.3328V19.0066H15.9375V29.748H20.2687Z" fill="white"/>
</svg>