<svg xmlns="http://www.w3.org/2000/svg" width="30" height="31" viewBox="0 0 30 31" fill="none">
  <g clip-path="url(#clip0_10_265)">
    <path d="M22.9688 0.880005H7.03125C3.148 0.880005 0 4.028 0 7.91125V23.8488C0 27.732 3.148 30.88 7.03125 30.88H22.9688C26.852 30.88 30 27.732 30 23.8488V7.91125C30 4.028 26.852 0.880005 22.9688 0.880005Z" fill="white"/>
    <path d="M22.9688 0.880005H7.03125C3.148 0.880005 0 4.028 0 7.91125V23.8488C0 27.732 3.148 30.88 7.03125 30.88H22.9688C26.852 30.88 30 27.732 30 23.8488V7.91125C30 4.028 26.852 0.880005 22.9688 0.880005Z" fill="black"/>
    <path d="M21.6463 26.39H25.0764C25.2007 26.39 25.3199 26.3406 25.4078 26.2527C25.4957 26.1648 25.5451 26.0456 25.5451 25.9213L25.5469 18.6742C25.5469 14.8864 24.7307 11.9748 20.3041 11.9748C18.6214 11.9123 17.0346 12.7797 16.1783 14.2281C16.1741 14.2352 16.1678 14.2406 16.1602 14.2437C16.1526 14.2468 16.1442 14.2473 16.1363 14.2452C16.1284 14.243 16.1214 14.2384 16.1164 14.2319C16.1114 14.2254 16.1087 14.2174 16.1086 14.2093V12.7933C16.1086 12.669 16.0592 12.5497 15.9713 12.4618C15.8834 12.3739 15.7642 12.3245 15.6398 12.3245H12.3847C12.2604 12.3245 12.1412 12.3739 12.0533 12.4618C11.9654 12.5497 11.916 12.669 11.916 12.7933V25.9206C11.916 26.045 11.9654 26.1642 12.0533 26.2521C12.1412 26.34 12.2604 26.3894 12.3847 26.3894H15.8146C15.9389 26.3894 16.0581 26.34 16.146 26.2521C16.2339 26.1642 16.2833 26.045 16.2833 25.9206V19.4316C16.2833 17.5968 16.6314 15.8199 18.9061 15.8199C21.1485 15.8199 21.1775 17.9194 21.1775 19.5504V25.9212C21.1775 26.0455 21.2269 26.1648 21.3148 26.2527C21.4027 26.3406 21.522 26.39 21.6463 26.39ZM4.45312 7.86754C4.45312 9.25797 5.5977 10.402 6.98813 10.402C8.3782 10.4018 9.52207 9.25715 9.52207 7.86708C9.52184 6.477 8.37785 5.33313 6.98766 5.33313C5.59711 5.33313 4.45312 6.47723 4.45312 7.86754ZM5.26863 26.39H8.70305C8.82737 26.39 8.9466 26.3406 9.0345 26.2527C9.12241 26.1648 9.1718 26.0455 9.1718 25.9212V12.7933C9.1718 12.669 9.12241 12.5497 9.0345 12.4618C8.9466 12.3739 8.82737 12.3245 8.70305 12.3245H5.26863C5.14431 12.3245 5.02508 12.3739 4.93718 12.4618C4.84927 12.5497 4.79988 12.669 4.79988 12.7933V25.9212C4.79988 26.0455 4.84927 26.1648 4.93718 26.2527C5.02508 26.3406 5.14431 26.39 5.26863 26.39Z" fill="white"/>
  </g>
  <defs>
    <clipPath id="clip0_10_265">
      <rect width="30" height="30" fill="white" transform="translate(0 0.880005)"/>
    </clipPath>
  </defs>
</svg>