<svg width="13" height="10" viewBox="0 0 13 10" fill="none" xmlns="http://www.w3.org/2000/svg">
<path d="M12.1251 0.124873L0.87513 0.124873C0.761229 0.125231 0.649582 0.156645 0.552207 0.215734C0.454832 0.274824 0.375416 0.359351 0.322508 0.460218C0.269599 0.561086 0.245201 0.674474 0.25194 0.788176C0.258679 0.901877 0.296301 1.01159 0.360754 1.1055L5.98575 9.2305C6.21888 9.56737 6.78013 9.56737 7.01388 9.2305L12.6389 1.1055C12.704 1.01178 12.7422 0.902018 12.7493 0.788126C12.7564 0.674235 12.7321 0.560575 12.6792 0.459494C12.6262 0.358413 12.5466 0.273777 12.4489 0.214784C12.3512 0.155789 12.2392 0.124694 12.1251 0.124873Z" fill="black"/>
</svg>
