<svg xmlns="http://www.w3.org/2000/svg" width="68" height="66" viewBox="0 0 68 66" fill="none">
  <path d="M60.0206 49.0514C58.9439 48.01 45.8974 43.052 43.53 42.1168C41.1751 41.1979 40.2356 38.6515 40.2356 38.6515C40.2356 38.6515 39.1756 39.2273 39.1756 37.6101C39.1756 35.9908 40.2356 38.6515 41.2956 32.407C41.2956 32.407 44.2367 31.5964 43.6526 24.8925H42.9459C42.9459 24.8925 44.7127 17.725 42.9459 15.2991C41.173 12.8732 40.4788 11.2559 36.5858 10.0961C32.6991 8.93826 34.1124 9.16901 31.2899 9.28744C28.4632 9.40384 26.1103 10.9068 26.1103 11.7133C26.1103 11.7133 24.3436 11.8297 23.6411 12.524C22.9344 13.2183 21.758 16.4528 21.758 17.2615C21.758 18.0701 22.3462 23.51 22.9344 24.6617L22.234 24.8863C21.6458 31.5923 24.5868 32.405 24.5868 32.405C25.6468 38.6495 26.7069 35.9887 26.7069 37.608C26.7069 39.2253 25.6468 38.6495 25.6468 38.6495C25.6468 38.6495 24.7053 41.1938 22.3525 42.1147C19.9996 43.0398 6.93851 48.01 5.87641 49.0494C4.81639 50.1112 4.93486 54.9631 4.93486 54.9631H60.958C60.958 54.9631 61.0889 50.1072 60.0164 49.0474L60.0206 49.0514ZM46.8535 53.646H37.3715V51.0935H46.8535V53.646Z" fill="white"/>
</svg>