<svg xmlns="http://www.w3.org/2000/svg" width="68" height="66" viewBox="0 0 68 66" fill="none">
  <path d="M33.9918 5.87048C18.7108 5.87048 6.27881 18.0844 6.27881 33.0972V44.3773C6.27881 47.1653 8.76466 49.4333 11.8214 49.4333H14.5927C15.3277 49.4333 16.0326 49.1464 16.5523 48.6358C17.072 48.1252 17.364 47.4327 17.364 46.7106V32.7079C17.364 31.9858 17.072 31.2933 16.5523 30.7827C16.0326 30.2721 15.3277 29.9852 14.5927 29.9852H12.0764C13.6172 19.4485 22.8456 11.3158 33.9918 11.3158C45.1379 11.3158 54.3663 19.4485 55.9072 29.9852H53.3908C52.6558 29.9852 51.9509 30.2721 51.4312 30.7827C50.9115 31.2933 50.6195 31.9858 50.6195 32.7079V49.4333C50.6195 52.4364 48.1337 54.8786 45.0769 54.8786H39.5343V52.156H28.4492V60.324H45.0769C51.1904 60.324 56.1621 55.4395 56.1621 49.4333C59.2189 49.4333 61.7047 47.1653 61.7047 44.3773V33.0972C61.7047 18.0844 49.2727 5.87048 33.9918 5.87048Z" fill="white"/>
</svg>