<svg xmlns="http://www.w3.org/2000/svg" width="68" height="66" viewBox="0 0 68 66" fill="none">
  <path d="M26.7146 17.872C24.3036 17.9632 22.1239 18.8086 20.9586 19.9548C20.8299 20.0812 20.677 20.1815 20.5089 20.2499C20.3407 20.3182 20.1605 20.3534 19.9785 20.3533C19.7965 20.3533 19.6162 20.318 19.4481 20.2495C19.28 20.181 19.1272 20.0807 18.9986 19.9542C18.8699 19.8277 18.7679 19.6775 18.6983 19.5123C18.6287 19.3471 18.593 19.17 18.593 18.9912C18.5931 18.8124 18.629 18.6354 18.6987 18.4702C18.7684 18.305 18.8706 18.1549 18.9993 18.0286C20.7965 16.2629 23.723 15.261 26.6065 15.1507C29.5094 15.0404 32.6784 15.8205 34.8982 18.0013C35.158 18.2568 35.3039 18.6032 35.3038 18.9643C35.3037 19.3254 35.1575 19.6717 34.8975 19.9269C34.6375 20.1822 34.2849 20.3255 33.9174 20.3254C33.5498 20.3253 33.1973 20.1817 32.9375 19.9263C31.4272 18.441 29.1076 17.7794 26.7146 17.8706V17.872Z" fill="white"/>
  <path fill-rule="evenodd" clip-rule="evenodd" d="M40.8315 37.704C43.579 34.5142 45.0837 30.4692 45.0771 26.2905C45.0771 16.5161 37.0127 8.59314 27.0637 8.59314C17.1148 8.59314 9.05029 16.5161 9.05029 26.2905C9.05029 36.0649 17.1148 43.9879 27.0637 43.9879C31.4909 43.9879 35.5439 42.4197 38.681 39.8168L38.1489 42.8226L48.5606 53.0517L54.3028 47.4103L43.891 37.1812L40.8315 37.704ZM27.0637 39.9039C34.7166 39.9039 40.9202 33.8092 40.9202 26.2905C40.9202 18.7719 34.7166 12.6772 27.0637 12.6772C19.4108 12.6772 13.2072 18.7719 13.2072 26.2905C13.2072 33.8092 19.4108 39.9039 27.0637 39.9039Z" fill="white"/>
  <path d="M50.52 54.9766L56.2621 49.3353L58.1411 51.1812C59.1983 52.2199 59.1983 53.9039 58.1411 54.9413L56.2261 56.8226C55.1689 57.8613 53.4548 57.8613 52.399 56.8226L50.52 54.9766Z" fill="white"/>
</svg>