<svg xmlns="http://www.w3.org/2000/svg" width="68" height="66" viewBox="0 0 68 66" fill="none">
  <path d="M33.9918 40.3577C35.5375 40.3577 37.0484 39.9074 38.3336 39.0637C39.6188 38.22 40.6205 37.0209 41.212 35.6179C41.8035 34.215 41.9582 32.6712 41.6567 31.1818C41.3552 29.6924 40.6108 28.3244 39.5179 27.2506C38.4249 26.1768 37.0324 25.4456 35.5164 25.1493C34.0005 24.853 32.4291 25.0051 31.0011 25.5862C29.5731 26.1673 28.3526 27.1515 27.4938 28.4141C26.6351 29.6767 26.1768 31.1612 26.1768 32.6797C26.1768 34.716 27.0001 36.669 28.4657 38.1088C29.9313 39.5487 31.9191 40.3577 33.9918 40.3577ZM33.9918 27.906C34.9528 27.906 35.8923 28.1859 36.6913 28.7105C37.4904 29.235 38.1132 29.9806 38.4809 30.8529C38.8487 31.7252 38.9449 32.685 38.7574 33.611C38.57 34.5371 38.1072 35.3877 37.4276 36.0553C36.7481 36.7229 35.8823 37.1776 34.9398 37.3617C33.9972 37.5459 33.0202 37.4514 32.1323 37.0901C31.2445 36.7288 30.4856 36.1169 29.9517 35.3319C29.4178 34.5468 29.1328 33.6239 29.1328 32.6797C29.1328 31.4136 29.6447 30.1994 30.556 29.3042C31.4672 28.4089 32.7031 27.906 33.9918 27.906Z" fill="white"/>
  <path d="M41.3818 7.68559C41.3818 6.7228 40.9925 5.79943 40.2995 5.11863C39.6066 4.43783 38.6667 4.05536 37.6867 4.05536H30.2966C29.3166 4.05536 28.3768 4.43783 27.6838 5.11863C26.9909 5.79943 26.6016 6.7228 26.6016 7.68559V20.3914H41.3818V7.68559ZM37.6867 16.7612H30.2966V7.68559H37.6867V16.7612Z" fill="white"/>
  <path d="M48.772 54.8786V50.7038C48.7774 50.2201 48.6071 49.7502 48.2916 49.3788C46.4987 47.4164 44.2881 45.8657 41.8168 44.8368C39.3455 43.8079 36.6739 43.326 33.9917 43.4252C31.3052 43.3327 28.631 43.8232 26.1594 44.8616C23.6878 45.9 21.4796 47.461 19.6918 49.4332C19.3778 49.8055 19.2076 50.2748 19.2115 50.7583V54.8786H22.1675V51.0124C23.6834 49.4471 25.5232 48.2193 27.5629 47.4114C29.6025 46.6036 31.7947 46.2347 33.9917 46.3294C36.1902 46.237 38.3832 46.6088 40.4229 47.4198C42.4627 48.2307 44.3017 49.462 45.8159 51.0305V54.8786H48.772Z" fill="white"/>
  <path d="M52.4669 11.3158H45.0768V14.946H52.4669V58.5088H15.5163V14.946H22.9065V11.3158H15.5163C14.5364 11.3158 13.5965 11.6983 12.9035 12.3791C12.2106 13.0599 11.8213 13.9832 11.8213 14.946V58.5088C11.8213 59.4716 12.2106 60.395 12.9035 61.0758C13.5965 61.7566 14.5364 62.1391 15.5163 62.1391H52.4669C53.4469 62.1391 54.3868 61.7566 55.0798 61.0758C55.7727 60.395 56.162 59.4716 56.162 58.5088V14.946C56.162 13.9832 55.7727 13.0599 55.0798 12.3791C54.3868 11.6983 53.4469 11.3158 52.4669 11.3158Z" fill="white"/>
</svg>