<svg xmlns="http://www.w3.org/2000/svg" width="68" height="66" viewBox="0 0 68 66" fill="none">
  <g clip-path="url(#clip0_0_396)">
    <path d="M45.8687 7.42615H52.9949C54.2549 7.42615 55.4633 7.91789 56.3542 8.79321C57.2452 9.66853 57.7457 10.8557 57.7457 12.0936V58.768C57.7457 60.0059 57.2452 61.1931 56.3542 62.0684C55.4633 62.9437 54.2549 63.4355 52.9949 63.4355H14.9886C13.7286 63.4355 12.5202 62.9437 11.6293 62.0684C10.7383 61.1931 10.2378 60.0059 10.2378 58.768V12.0936C10.2378 10.8557 10.7383 9.66853 11.6293 8.79321C12.5202 7.91789 13.7286 7.42615 14.9886 7.42615H22.1148" stroke="white" stroke-width="5.43174" stroke-linecap="round" stroke-linejoin="round"/>
    <path d="M41.1182 2.75879H26.8658C24.242 2.75879 22.115 4.84848 22.115 7.42623V9.75996C22.115 12.3377 24.242 14.4274 26.8658 14.4274H41.1182C43.742 14.4274 45.869 12.3377 45.869 9.75996V7.42623C45.869 4.84848 43.742 2.75879 41.1182 2.75879Z" stroke="white" stroke-width="5.43174" stroke-linecap="round" stroke-linejoin="round"/>
    <path d="M22.115 26.0959H45.869M22.115 37.7645H45.869M22.115 49.4331H45.869" stroke="white" stroke-width="5.43174" stroke-linecap="round" stroke-linejoin="round"/>
  </g>
  <defs>
    <clipPath id="clip0_0_396">
      <rect width="66.5111" height="65.3442" fill="white" transform="translate(0.736328 0.425049)"/>
    </clipPath>
  </defs>
</svg>